<?xml version="1.0" encoding="UTF-8"?>
<svg width="175px" height="56px" viewBox="0 0 175 56" version="1.1" xmlns="http://www.w3.org/2000/svg" xmlns:xlink="http://www.w3.org/1999/xlink">
    <title>IMAGINE THIS logo</title>
    <g id="Works-page---Oakley" stroke="none" stroke-width="1" fill="none" fill-rule="evenodd">
        <g id="Frame-3-Copy-16" transform="translate(-159, -51)" fill="#111111">
            <g id="Group" transform="translate(159, 50)">
                <g id="Left-menu" transform="translate(0, 1)" fill-rule="nonzero">
                    <g id="IMAGINE-THIS-logo">
                        <path d="M13.4835471,38.2795981 L13.9231824,38.6552657 C13.4835471,39.2813783 12.9811066,39.907491 12.4786662,40.4709924 C11.8506157,41.0971051 11.1597601,41.6606065 10.4060995,42.0362741 C9.65243883,42.3493305 8.83597314,42.4119417 8.0823125,42.2241079 C7.32865186,41.9736629 6.70060133,41.4727727 6.32377101,40.7840488 C5.88413564,40.1579361 5.69572048,39.4066009 5.69572048,38.6552657 L5.69572048,22.1885022 C5.82133059,21.3745557 5.57011038,20.4979979 5.0048649,19.8718853 C4.56522953,19.4962177 3.937179,19.4336064 3.37193352,19.6840515 L3.12071331,19.12055 L6.63779628,17.8057134 L10.1548793,16.4282655 L10.1548793,38.2795981 C10.1548793,38.7804882 10.2176843,39.2813783 10.4689045,39.7196572 C10.6573197,40.0953248 11.0969551,40.2831586 11.4737854,40.0953248 C12.2902511,39.657046 12.9811066,39.0309333 13.4835471,38.2795981 L13.4835471,38.2795981 Z" id="Path"></path>
                        <path d="M56.6307282,38.2649108 L57.133059,38.6403259 C56.6935195,39.2660177 56.1911887,39.8917096 55.6260666,40.4548322 C54.9981531,41.0805241 54.3702395,41.5810775 53.6167433,42.0190618 C52.9260385,42.3319077 52.1725423,42.3944769 51.4818374,42.2693386 C50.2888017,42.0190618 49.3469315,41.1430932 48.9701834,40.0168479 C48.8446007,39.5788636 48.7818093,39.2034485 48.7818093,38.7654642 L48.7818093,24.1242752 L48.7818093,24.1242752 C48.7818093,23.6237217 48.7818093,23.1857374 48.7818093,22.6851839 C48.719018,21.8092154 48.5306439,20.995816 48.2794785,20.1824166 C47.9655218,19.306448 47.4003996,18.618187 46.6469034,18.1176335 C45.5794504,17.61708 44.3236234,17.61708 43.2561704,18.1176335 C41.9375521,18.618187 40.681725,19.3690172 39.6142721,20.3075549 C38.7351932,21.0583851 37.8561143,21.9343537 37.102618,22.8103223 L37.102618,42.2693386 L32.5188494,42.2693386 L32.5188494,24.1242752 L32.5188494,24.1242752 C32.5188494,23.6237217 32.5188494,23.1857374 32.5188494,22.6851839 C32.4560581,21.8092154 32.267684,20.995816 32.0165186,20.1824166 C31.7025619,19.306448 31.1374397,18.618187 30.3839435,18.1176335 C29.3164905,17.61708 28.0606635,17.61708 26.9932105,18.1176335 C25.8001749,18.5556178 24.7327219,19.1813096 23.7280603,19.9321398 C22.78619,20.68297 21.9699025,21.4963694 21.2164063,22.4349072 C20.5257014,23.3108758 19.8977879,24.061706 19.3326657,24.9376746 L19.3326657,32.1331307 L19.3326657,32.1331307 L19.3326657,42.2067694 L14.9372712,42.2067694 L14.9372712,22.2471996 C14.9372712,21.4963694 14.8116885,20.8081084 14.4977317,20.1824166 C14.2465663,19.8695706 13.9326096,19.6192939 13.4930701,19.6192939 C13.1791134,19.6192939 12.9279479,19.6192939 12.6139912,19.7444323 L12.3628258,19.0561713 L15.1256452,18.0550643 L18.2652128,16.8662498 L19.3954571,16.4282655 L19.3954571,23.6237217 C20.2117447,22.4974764 21.1536149,21.3712311 22.1582765,20.3701241 C23.1629381,19.306448 24.3559738,18.3679102 25.6745922,17.61708 C26.8676278,16.928819 28.2490376,16.4908347 29.6304473,16.4282655 C31.3258138,16.4282655 33.0211802,16.8662498 34.4653813,17.7422184 C35.846791,18.6807562 36.7886613,20.1824166 36.9770353,21.8092154 C37.7305316,20.9332468 38.6096105,20.0572782 39.4886894,19.306448 C40.4305596,18.5556178 41.4352213,17.8673568 42.5026742,17.3042341 C43.5073358,16.8036806 44.6375802,16.4908347 45.8306158,16.4908347 C46.8352774,16.4908347 47.7771477,16.6159731 48.719018,16.8662498 C50.2888017,17.2416649 51.6074201,18.1802027 52.486499,19.5567247 C53.0516212,20.4952625 53.3027866,21.5589386 53.3027866,22.6226147 L53.3027866,38.1397724 C53.3027866,38.6403259 53.3655779,39.1408793 53.6167433,39.6414328 C53.8051174,40.0168479 54.2446568,40.2045555 54.6214049,40.0168479 C55.4376925,39.5788636 56.1283974,38.9531718 56.6307282,38.2023416 L56.6307282,38.2649108 Z" id="Path-2"></path>
                        <path d="M83.396099,38.3141182 L83.899177,38.6904958 L83.3332143,39.443251 C82.9559058,39.9450877 82.5157127,40.3841949 82.0755195,40.823302 C81.5724416,41.3251388 80.9435942,41.764246 80.3147468,42.0778939 C79.6230146,42.3915419 78.8683977,42.4542715 78.1766656,42.3288123 L78.0508961,42.3288123 C77.0447403,42.0151643 76.2272386,41.1996796 75.8499302,40.1960061 L75.8499302,40.0705469 C75.661276,39.3177918 75.5983912,38.5650366 75.5983912,37.7495519 L75.5983912,28.9674086 C75.2210828,30.9747556 74.6551201,32.9193731 73.8376185,34.7385313 C73.0201169,36.6204192 71.8253068,38.3141182 70.316073,39.7568989 C69.0583782,40.8860316 67.5491445,41.764246 65.9141412,42.2660827 C64.279138,42.8306491 62.5183652,42.8306491 60.883362,42.2660827 C59.8772061,41.8897052 59.0597045,41.13695 58.4937419,40.1960061 C57.9906639,39.2550622 57.8020097,38.1886591 57.8648945,37.1849855 C57.8648945,36.1185824 58.2422029,35.1149089 58.7452808,34.173965 C59.3112435,33.2330211 60.1287451,32.3548067 61.0091315,31.6647812 C61.9524026,30.9747556 62.8956737,30.3474597 63.9647143,29.9083525 C65.0337549,29.4065158 66.1027954,28.9674086 67.171836,28.5283014 L67.4862597,28.5283014 C68.5553003,28.1519239 69.6243409,27.6500871 70.6304967,27.1482503 C71.6366526,26.6464136 72.5799237,25.956388 73.4603101,25.2036329 C74.3406964,24.4508778 74.9695438,23.5099338 75.4726217,22.4435307 C75.3468523,21.3771276 75.0324286,20.3107245 74.4664659,19.4325102 C73.9005032,18.4915662 73.0201169,17.8642703 71.9510763,17.6133519 L69.8129951,17.6133519 C69.0583782,17.6133519 68.2408766,17.8015407 67.5491445,17.9897295 C66.2285649,18.4288366 64.9708701,18.993403 63.8389448,19.7461581 C63.2100974,20.1852653 62.58125,20.6243725 61.9524026,21.1262092 L61.9524026,21.1262092 C61.7008636,21.2516684 61.4493247,21.3771276 61.1977857,21.3771276 C60.883362,21.3771276 60.631823,21.2516684 60.3802841,21.0634796 C60.1287451,20.8125613 60.0029756,20.4989133 60.0029756,20.1852653 C60.0029756,19.6834285 60.3173993,19.2443214 60.7575925,19.0561326 C62.2039415,18.3033775 63.77606,17.7388111 65.4110633,17.3624335 C67.0460665,16.986056 68.6810698,16.8605968 70.316073,16.9233264 C71.5737678,16.9233264 72.8943474,17.1742447 74.0891575,17.5506223 C75.2839675,17.9269999 76.4158929,18.4915662 77.4220487,19.2443214 C78.4282045,20.0598061 79.1828214,21.1262092 79.6230146,22.3180715 C79.8745536,23.0080971 80.0003231,23.6981226 80.0632078,24.4508778 L80.0632078,38.3768478 C80.0632078,38.8786846 80.1889773,39.3805214 80.3776315,39.8196285 C80.5662857,40.1960061 81.0064789,40.3841949 81.3837873,40.1960061 C82.201289,39.7568989 82.8930211,39.129603 83.396099,38.3768478 L83.396099,38.3768478 L83.396099,38.3141182 Z M73.6489643,33.860317 C74.3406964,32.1666179 74.8437743,30.3474597 75.158198,28.5283014 C75.4726217,26.7718728 75.5983912,25.0781737 75.5983912,23.3217451 C74.8437743,24.4508778 73.8376185,25.4545513 72.6428084,26.2073064 C71.4479984,27.0227912 70.1903036,27.6500871 68.869724,28.1519239 L68.869724,28.1519239 C67.6120292,28.904679 66.5429886,29.7828933 65.5368328,30.7865669 C64.5935617,31.7902404 63.8389448,33.0448323 63.3987516,34.3621538 C62.9585584,35.7422049 63.0843279,37.2477151 63.6502906,38.5650366 C63.8389448,39.129603 64.279138,39.6941693 64.7822159,40.0078173 C65.2224091,40.3214653 65.7883717,40.4469245 66.2914497,40.4469245 C66.9202971,40.4469245 67.5491445,40.3214653 68.1151071,40.0705469 C68.7439545,39.8196285 69.3728019,39.5059806 69.9387646,39.0668734 C71.5737678,37.5613631 72.7685779,35.7422049 73.5860795,33.6721282 L73.5860795,33.7975874 L73.6489643,33.860317 Z" id="Shape"></path>
                        <path d="M110.068146,43.7624253 C111.385958,43.88768 112.578263,44.3886986 113.645063,45.2028539 C114.64911,45.9543819 115.339392,47.0816739 115.590404,48.3968478 C115.778663,49.5867671 115.527651,50.7766864 114.900122,51.7787237 C114.272592,52.780761 113.394051,53.5949163 112.390004,54.1585623 C111.260452,54.7848356 110.068146,55.0979722 108.813087,55.1605996 C107.997299,55.1605996 107.118758,55.1605996 106.30297,55.1605996 C105.424429,55.1605996 104.608641,55.0353449 103.792853,54.8474629 C102.537794,54.6595809 101.282735,54.4090716 100.09043,54.0959349 C98.835371,53.7827983 97.5803124,53.4696616 96.4507596,53.0938976 C95.3212068,52.7181337 93.7523835,52.2797423 92.4345719,51.9666057 C91.1167603,51.5908417 89.7361958,51.3403324 88.4183842,51.2150777 C86.5985491,51.0271957 84.7159612,51.0271957 82.8961261,51.3403324 C81.3273028,51.653469 79.8839853,52.3423697 78.7544325,53.4070343 L78.377915,53.0312703 C79.5702207,51.9039784 81.0762911,51.0898231 82.7078673,50.7766864 C84.5904553,50.4009224 86.5357962,50.3382951 88.4811371,50.5888044 C89.8617016,50.7140591 91.3050191,50.9645684 92.6228307,51.3403324 C94.0033952,51.7160964 95.3839597,52.0918604 96.7017713,52.4676243 C98.0823358,52.8433883 99.7139121,53.344407 101.15723,53.720171 C102.6633,54.0959349 104.16937,54.3464443 105.738194,54.4716989 C106.553982,54.3464443 107.307017,54.0959349 108.060052,53.720171 C108.813087,53.4070343 109.50337,52.9060157 110.068146,52.2797423 C110.632922,51.653469 111.00944,50.9019411 111.072193,50.0877858 C111.197699,48.9604938 110.758428,47.7705745 109.879887,47.0190465 C109.001346,46.2048912 107.871793,45.7038726 106.679488,45.5786179 C105.487182,45.3907359 104.232123,45.5159906 103.10257,45.8291273 L93.8778893,49.2736305 C92.9993483,49.6493944 92.1208072,49.9625311 91.1795132,50.2130404 C90.2382192,50.4635497 89.2341723,50.5888044 88.2928783,50.5261771 C87.2888314,50.4635497 86.3475374,50.1504131 85.5317493,49.5867671 C84.5904553,49.0231211 83.962926,48.1463385 83.7119142,47.0816739 C83.4609025,46.2048912 83.5236554,45.2654813 83.8374201,44.3886986 C84.1511848,43.5745433 84.5904553,42.8856427 85.1552317,42.3219967 C85.7200081,41.7583507 86.2847845,41.2573321 86.9750667,40.8815681 C87.6025961,40.5058041 88.2928783,40.1300401 88.9831606,39.8169035 C86.8495609,38.3764749 85.2179846,36.3724003 84.2766906,33.9299344 C83.3353966,31.6127231 83.1471378,29.1076299 83.5864084,26.665164 C84.0256789,24.1600707 85.2807376,21.8428595 87.1005726,20.0266669 C90.8657486,16.3316544 96.4507596,15.2043624 101.345488,17.2710643 L101.345488,17.2710643 C103.479088,17.4589463 105.675441,17.208437 107.683535,16.5821637 C109.189605,16.081145 110.570169,15.3296171 111.825228,14.3275798 C112.703769,13.6386791 113.456804,12.7618965 114.084334,11.8224865 C114.398098,11.3214679 114.711863,10.8204492 114.900122,10.3194306 L114.900122,10.3194306 C115.088381,9.88103928 115.402145,9.44264796 115.841416,9.19213864 C116.280686,8.94162932 116.719957,8.75374732 117.22198,8.75374732 C118.602545,8.75374732 119.732098,9.88103928 119.732098,11.2588406 C119.732098,12.0103685 119.418333,12.6992692 118.853557,13.2002878 L118.853557,13.2002878 C118.351533,13.7013065 117.786757,14.0770705 117.22198,14.5154618 C116.092428,15.2669897 114.837369,15.9558904 113.58231,16.456909 L112.138993,16.9579277 C111.00944,17.3336917 109.879887,17.6468283 108.687581,17.8347103 C107.307017,18.0852196 105.926452,18.2731016 104.545888,18.2731016 L102.6633,18.2731016 C103.604594,18.8367476 104.420382,19.4630209 105.173417,20.2145489 C106.804993,21.7802322 107.997299,23.7843068 108.562076,25.9762633 C109.126852,28.1682199 109.126852,30.4228038 108.562076,32.6147604 C107.997299,34.806717 106.804993,36.7481643 105.173417,38.3138475 C103.541841,39.9421581 101.470994,41.0694501 99.2746416,41.6957234 C97.015536,42.3219967 94.6936775,42.3219967 92.4345719,41.6957234 C91.2422662,41.6957234 90.0499604,41.9462327 88.8576547,42.3219967 C87.7281019,42.6351334 86.6613021,43.2614067 85.782761,44.0129347 C84.90422,44.82709 84.2139377,45.8917546 83.900173,47.0190465 C84.1511848,47.9584565 84.7159612,48.7099845 85.5317493,49.2110031 C86.2847845,49.7120218 87.1633255,49.9625311 88.0418666,50.0251584 C88.9831606,50.0251584 89.9244546,50.0251584 90.8029956,49.7120218 C91.6815367,49.4615125 92.4973248,49.1483758 93.3131129,48.8352391 L102.6633,45.3281086 C103.792853,44.8897173 104.922406,44.5139533 106.114711,44.2008167 C107.36977,43.8250527 108.687581,43.6371707 109.94264,43.699798 L109.94264,43.699798 L110.068146,43.7624253 Z M88.606643,30.8611952 C89.0459135,32.8652697 89.7989487,34.7440897 90.8657486,36.4976549 C91.7442896,38.0007109 92.9365953,39.2532575 94.3799128,40.2552948 C95.5094656,41.0694501 96.952783,41.4452141 98.3333476,41.3199594 L98.3333476,41.3199594 L99.1491357,41.1320774 C100.655206,40.6310588 101.910265,39.5663942 102.726053,38.1885929 C103.541841,36.6229096 104.043864,34.9319717 104.106617,33.1784064 C104.294876,29.3581392 103.416335,25.537872 101.5965,22.1559962 C100.780712,20.6529402 99.6511592,19.3377663 98.3333476,18.2731016 C97.0782889,17.3336917 95.5722185,16.8953003 94.0033952,16.9579277 L93.0621012,17.1458097 C91.7442896,17.6468283 90.6147368,18.5862383 89.9244546,19.7761576 C89.1086665,21.2792135 88.5438901,22.9075241 88.4183842,24.5984621 C88.1673725,26.665164 88.2928783,28.7318659 88.7321489,30.7359405 L88.7321489,30.7359405 L88.606643,30.8611952 Z M123.246262,38.2512202 L123.748285,38.6269842 C123.309015,39.2532575 122.806991,39.8795308 122.242215,40.4431768 C121.614686,41.0694501 120.987156,41.5704688 120.234121,42.0088601 C119.481086,42.3219967 118.665298,42.3846241 117.912263,42.1967421 C117.159227,41.9462327 116.531698,41.5078414 116.15518,40.8815681 C115.71591,40.2552948 115.527651,39.5037668 115.527651,38.7522389 L115.527651,22.2812508 C115.653157,21.4670955 115.402145,20.5903129 114.837369,19.9640396 C114.398098,19.5882756 113.770569,19.5256483 113.205793,19.7761576 L113.017534,19.2751389 L116.531698,17.959965 L120.045862,16.5821637 L120.045862,38.3138475 C120.045862,38.8148662 120.108615,39.3158848 120.359627,39.8169035 C120.547886,40.1926675 120.987156,40.3805495 121.363674,40.1926675 C122.179462,39.7542762 122.869744,39.1280028 123.371768,38.3764749 L123.246262,38.2512202 Z" id="Shape-2"></path>
                        <path d="M150.012232,38.3196191 L150.514403,38.6950791 C150.075003,39.3208457 149.572831,39.9466123 149.007888,40.5098023 C148.380174,41.1355689 147.689688,41.6361822 146.93643,42.0742188 C146.245944,42.3871021 145.492687,42.4496788 144.8022,42.3245255 C143.609543,42.0742188 142.667971,41.1981456 142.291342,40.0717657 C142.165799,39.6963057 142.103028,39.2582691 142.040256,38.8202324 L142.040256,24.1772936 L142.040256,24.1772936 C142.040256,23.6766803 142.040256,23.2386437 142.040256,22.7380304 C141.977485,21.8619571 141.78917,21.0484605 141.475313,20.2349639 C141.161456,19.3588907 140.596513,18.6079707 139.780484,18.1699341 C138.713369,17.6693208 137.520711,17.6693208 136.453596,18.1699341 C135.260939,18.6079707 134.193824,19.2337373 133.189481,19.9846573 C132.247909,20.7355772 131.43188,21.5490738 130.678622,22.4877237 C129.925365,23.363797 129.360421,24.1772936 128.795478,24.9907902 L128.795478,42.4496788 L124.401476,42.4496788 L124.401476,22.4877237 C124.401476,21.7368038 124.275933,21.0484605 123.899305,20.4226939 C123.71099,20.1098106 123.334361,19.859504 122.894961,19.859504 C122.643875,19.859504 122.330018,19.859504 122.016161,19.859504 L121.827846,19.3588907 L124.527019,18.3576641 L127.665592,17.1687075 L128.795478,16.7306709 L128.795478,23.8018336 C129.611507,22.6754537 130.553079,21.6116505 131.557423,20.6104239 C132.561766,19.5466207 133.754424,18.6079707 135.072624,17.8570508 C136.265282,17.1061308 137.646254,16.7306709 139.027226,16.6680942 C140.03157,16.6680942 140.973141,16.7932475 141.914713,17.0435542 C143.232914,17.4190142 144.3628,18.1699341 145.178829,19.2337373 C145.994858,20.2975406 146.434258,21.5490738 146.434258,22.8631837 L146.434258,38.4447725 C146.434258,38.9453858 146.49703,39.445999 146.748116,39.9466123 C146.93643,40.3220723 147.250287,40.4472256 147.752459,40.3220723 C148.568488,39.8840357 149.258974,39.2582691 149.761146,38.5073491 L150.012232,38.3196191 Z" id="Path-3"></path>
                        <path d="M174.372387,36.3959665 L175,36.3959665 C174.372387,37.5890053 173.556489,38.5936695 172.489547,39.4099591 C171.422604,40.2890403 170.230139,40.9169554 168.912151,41.356496 C167.531401,41.8588281 166.087891,42.1099942 164.581619,42.2355772 C163.263631,42.3611602 162.008404,42.3611602 160.690416,42.2355772 C158.556531,42.0472026 156.485407,41.2937045 154.728089,40.1006658 C152.970772,38.907627 151.527261,37.2750477 150.52308,35.4540938 C149.456137,33.5703485 148.954047,31.4982285 148.954047,29.3633171 C148.954047,27.1028227 149.518899,24.8423282 150.711364,22.8957913 C151.841068,20.9492544 153.472863,19.3166751 155.418464,18.1864279 C157.364065,16.9933891 159.623473,16.4282655 161.882881,16.4282655 C164.518857,16.4282655 167.029311,17.1817637 169.163196,18.68876 C171.359843,20.1329648 172.991637,22.2050847 173.933057,24.6539537 L174.184103,25.2818688 L154.163237,25.2818688 C153.974953,27.6051548 154.163237,29.9284407 154.790851,32.1889352 C155.355703,34.3866381 156.297123,36.458758 157.677872,38.2169204 C160.564893,41.5448705 164.518857,42.2983687 169.602525,40.4146233 C171.548127,39.5983337 173.179921,38.2169204 174.184103,36.3959665 L174.184103,36.3959665 L174.372387,36.3959665 Z M154.853612,22.0167101 C154.602567,22.8957913 154.351521,23.7748725 154.225999,24.6539537 L168.41006,24.6539537 C167.907969,23.5237064 167.343117,22.3934592 166.652743,21.3260035 C165.962368,20.2585478 165.146471,19.3794666 164.142289,18.6259685 C163.200869,17.8724703 162.071165,17.3701382 160.8787,17.2445552 C159.497951,17.0561807 158.117201,17.4329297 157.050259,18.3748024 C155.983316,19.3794666 155.23018,20.6352969 154.790851,22.0795017 L154.853612,22.0167101 Z" id="Shape-3"></path>
                        <polygon id="Path-4" points="125.910861 48.2431525 121.227709 48.2431525 121.227709 47.366167 132.030178 47.366167 132.030178 48.2431525 127.347027 48.2431525 127.347027 55.7601713 125.910861 55.7601713"></polygon>
                        <polygon id="Path-5" points="138.03155 47.366167 139.470424 47.366167 139.470424 51.0620346 146.977595 51.0620346 146.977595 47.366167 148.353909 47.366167 148.353909 55.7601713 146.977595 55.7601713 146.977595 52.0016619 139.470424 52.0016619 139.470424 55.7601713 138.03155 55.7601713"></polygon>
                        <polygon id="Path-6" points="156.035665 47.366167 157.475995 47.366167 157.475995 55.7601713 156.035665 55.7601713"></polygon>
                        <path d="M164.801855,55.177185 C163.922584,54.7404301 163.357339,53.8045268 163.420144,52.8686235 L164.86466,52.8686235 C164.86466,53.5549526 165.24149,54.2412817 165.932346,54.4908559 C166.874422,54.8652172 167.816498,55.0523979 168.821378,54.9900043 C169.826259,54.9900043 170.768335,54.9276108 171.710411,54.615643 C172.401266,54.3660688 172.778097,53.9917075 172.778097,53.5549526 C172.778097,53.1181977 172.401266,52.8062299 171.521996,52.6190492 L168.256133,51.9951137 C167.000032,51.8703266 165.806736,51.5583588 164.61344,51.1839975 C163.922584,50.9968168 163.420144,50.3728813 163.357339,49.6241586 C163.357339,48.7506488 163.985389,48.0643197 164.801855,47.8771391 C166.057956,47.5027777 167.376862,47.3155971 168.695768,47.3779906 C170.07748,47.3155971 171.396386,47.5651713 172.652487,48.0643197 C173.531757,48.4386811 174.097003,49.3745844 174.034198,50.3728813 L172.652487,50.3728813 C172.652487,49.6865522 172.212851,49.0626166 171.584801,48.7506488 C170.642725,48.4386811 169.637844,48.313894 168.695768,48.3762875 C167.690887,48.3762875 166.748812,48.4386811 165.806736,48.6882553 C165.053075,48.9378295 164.73905,49.2497973 164.73905,49.6865522 C164.73905,50.123307 165.178685,50.4352748 165.995151,50.684849 L169.198209,51.3087846 C170.45431,51.4335717 171.710411,51.7455395 172.903707,52.1199008 C173.594562,52.2446879 174.159808,52.8686235 174.159808,53.6173461 C174.159808,54.4908559 173.594562,55.2395785 172.778097,55.4267592 C171.521996,55.8635141 170.20309,56.0506948 168.821378,55.9883012 C167.439667,55.9883012 166.057956,55.8011205 164.86466,55.2395785 L164.86466,55.2395785 L164.801855,55.177185 Z" id="Path-7"></path>
                        <path d="M35.7075772,5.01494252 C35.2682924,4.5767889 34.7034977,4.3264154 34.1387029,4.13863527 C33.5739082,4.01344852 33.0091135,4.01344852 32.4443188,4.13863527 C32.005034,4.20122865 31.5029943,4.3264154 31.0637095,4.38900877 L31.2519744,4.95234914 C31.942279,4.70197565 32.6953387,4.63938227 33.3856433,4.70197565 C34.3269678,5.01494252 34.7662526,6.76755701 34.2014579,8.33239138 C31.942279,14.4665421 22.3407688,9.70944563 18.3872058,8.64535826 C17.947921,8.52017151 17.5713912,8.39498476 17.1321064,8.39498476 C16.5673117,5.51568952 13.4923183,4.76456902 10.6055897,5.07753589 C10.040795,2.69898765 8.22090089,0.821186408 5.89896705,0.0700659103 C3.76529812,-0.242900964 1.56887422,0.508219534 0,2.01046053 L0.376529812,2.51120753 C0.690304655,2.13564728 1.12958944,1.76008703 1.50611925,1.50971353 C2.82397359,0.695999658 4.3928478,0.633406283 5.77345711,1.25934003 C7.15406642,1.94786715 8.03263598,3.26232802 8.15814592,4.76456902 L8.15814592,5.26531602 C5.3969273,6.51718351 1.56887422,9.64685225 3.95356302,11.5246535 C6.33825183,13.4024547 10.9821195,11.6498402 10.6055897,5.39050277 C11.8606891,5.07753589 13.1157884,5.14012927 14.3081328,5.64087627 C15.3749673,6.07902989 16.065272,7.01793051 16.1907819,8.14461126 C11.1703844,9.20869863 16.002517,14.6543222 17.1321064,8.95832513 C21.3366893,9.271292 25.0392325,12.6513342 30.9381995,12.4635541 C37.5274712,12.0879939 38.029511,6.95533714 35.7075772,4.82716239 L35.7075772,5.01494252 Z M5.3969273,11.3368734 C4.89488755,11.3368734 4.14182793,11.3368734 4.07907296,10.5857529 C4.07907296,8.95832513 6.84029158,6.89274376 8.34641083,6.39199676 C8.34641083,8.45757813 7.71886114,10.8987197 5.33417233,11.3368734 L5.3969273,11.3368734 Z M14.8101726,10.773533 C14.3081328,10.272786 15.3749673,9.39647875 16.2535369,9.271292 C16.3790468,10.2101926 15.3749673,11.3368734 14.8101726,10.773533 L14.8101726,10.773533 Z" id="Shape-4"></path>
                    </g>
                </g>
            </g>
        </g>
    </g>
</svg>